STARTFONT 2.1
FONT -Monotype-Book Antiqua-Bold-R-Normal--18-180-75-75-P-97-iso8859-2
SIZE 18 75 75
FONTBOUNDINGBOX 22 22 -2 -5

STARTPROPERTIES 24
FOUNDRY "Monotype"
FAMILY_NAME "Book Antiqua"
WEIGHT_NAME "Bold"
SLANT "R"
SETWIDTH_NAME "Normal"
ADD_STYLE_NAME ""
PIXEL_SIZE 18
POINT_SIZE 180
RESOLUTION_X 75
RESOLUTION_Y 75
SPACING "P"
AVERAGE_WIDTH 97
CHARSET_REGISTRY "iso8859"
CHARSET_ENCODING "2"
FACE_NAME "Book Antiqua Bold ISO Latin2"
_DEC_DEVICE_FONTNAMES "PS=bookantiqua-b-lat2"
COPYRIGHT "Copyright (c) 1994 Monotype Typography Ltd."
CAP_HEIGHT 16
X_HEIGHT 11
WEIGHT 10
QUAD_WIDTH 12
DEFAULT_CHAR 160
FONT_DESCENT 6
FONT_ASCENT 18
ENDPROPERTIES

CHARS 191

STARTCHAR space
ENCODING 32
SWIDTH 250 0
DWIDTH 5 0
BBX 0 0 0 0
BITMAP
ENDCHAR

STARTCHAR exclam
ENCODING 33
SWIDTH 278 0
DWIDTH 5 0
BBX 3 14 1 0
BITMAP
40
E0
E0
E0
E0
E0
E0
E0
40
40
00
E0
E0
E0
ENDCHAR

STARTCHAR quotedbl
ENCODING 34
SWIDTH 402 0
DWIDTH 8 0
BBX 7 6 1 7
BITMAP
44
EE
EE
44
44
44
ENDCHAR

STARTCHAR numbersign
ENCODING 35
SWIDTH 606 0
DWIDTH 12 0
BBX 13 13 0 0
BITMAP
0C60
0C60
0C60
0C60
7FF8
18C0
18C0
18C0
FFF0
3180
3180
3180
3180
ENDCHAR

STARTCHAR dollar
ENCODING 36
SWIDTH 500 0
DWIDTH 10 0
BBX 9 17 1 -2
BITMAP
0800
0800
3F80
6980
E880
E880
F800
FC00
7F00
1F80
0F80
8B80
8B80
CB00
FE00
0800
0800
ENDCHAR

STARTCHAR percent
ENCODING 37
SWIDTH 889 0
DWIDTH 17 0
BBX 16 13 1 0
BITMAP
3030
4820
CC60
CC40
CCC0
4880
318C
0112
0333
0233
0633
0412
0C0C
ENDCHAR

STARTCHAR ampersand
ENCODING 38
SWIDTH 833 0
DWIDTH 16 0
BBX 14 13 1 0
BITMAP
0E00
1B00
3B00
3B00
3E00
1C00
3DF8
6C60
EE60
E740
F384
7BCC
3C78
ENDCHAR

STARTCHAR quoteright
ENCODING 39
SWIDTH 278 0
DWIDTH 5 0
BBX 4 5 1 9
BITMAP
30
70
60
40
80
ENDCHAR

STARTCHAR parenleft
ENCODING 40
SWIDTH 333 0
DWIDTH 6 0
BBX 5 19 1 -5
BITMAP
08
10
30
30
60
60
E0
E0
E0
E0
E0
E0
E0
60
60
30
30
10
08
ENDCHAR

STARTCHAR parenright
ENCODING 41
SWIDTH 333 0
DWIDTH 6 0
BBX 5 19 1 -5
BITMAP
80
40
60
60
30
30
38
38
38
38
38
38
38
30
30
60
60
40
80
ENDCHAR

STARTCHAR asterisk
ENCODING 42
SWIDTH 444 0
DWIDTH 8 0
BBX 8 7 0 7
BITMAP
18
DB
7E
3C
DB
99
18
ENDCHAR

STARTCHAR plus
ENCODING 43
SWIDTH 606 0
DWIDTH 12 0
BBX 10 10 1 1
BITMAP
0C00
0C00
0C00
0C00
FFC0
FFC0
0C00
0C00
0C00
0C00
ENDCHAR

STARTCHAR comma
ENCODING 44
SWIDTH 250 0
DWIDTH 5 0
BBX 4 5 1 -3
BITMAP
30
70
60
40
80
ENDCHAR

STARTCHAR minus
ENCODING 45
SWIDTH 606 0
DWIDTH 12 0
BBX 10 2 1 4
BITMAP
FFC0
FFC0
ENDCHAR

STARTCHAR period
ENCODING 46
SWIDTH 250 0
DWIDTH 5 0
BBX 3 3 1 0
BITMAP
E0
E0
E0
ENDCHAR

STARTCHAR slash
ENCODING 47
SWIDTH 296 0
DWIDTH 6 0
BBX 11 19 -2 -5
BITMAP
0060
0060
00C0
00C0
0180
0180
0300
0300
0600
0600
0C00
0C00
1800
1800
3000
3000
6000
6000
C000
ENDCHAR

STARTCHAR zero
ENCODING 48
SWIDTH 500 0
DWIDTH 10 0
BBX 8 13 1 0
BITMAP
3C
66
E7
E7
E7
E7
E7
E7
E7
E7
E7
66
3C
ENDCHAR

STARTCHAR one
ENCODING 49
SWIDTH 500 0
DWIDTH 10 0
BBX 8 13 1 0
BITMAP
0C
3C
DC
1C
1C
1C
1C
1C
1C
1C
1C
1C
7F
ENDCHAR

STARTCHAR two
ENCODING 50
SWIDTH 500 0
DWIDTH 10 0
BBX 8 13 1 0
BITMAP
7C
CE
87
07
07
07
0E
0C
18
30
60
FF
FF
ENDCHAR

STARTCHAR three
ENCODING 51
SWIDTH 500 0
DWIDTH 10 0
BBX 8 13 1 0
BITMAP
78
DC
8E
0E
0C
18
3C
0E
07
07
87
CE
7C
ENDCHAR

STARTCHAR four
ENCODING 52
SWIDTH 500 0
DWIDTH 10 0
BBX 10 13 0 0
BITMAP
0700
0F00
0F00
1700
1700
2700
2700
4700
7FC0
FFC0
0700
0700
1FC0
ENDCHAR

STARTCHAR five
ENCODING 53
SWIDTH 500 0
DWIDTH 10 0
BBX 7 13 2 0
BITMAP
FE
FE
80
80
B8
FC
8E
0E
0E
0E
8E
DC
78
ENDCHAR

STARTCHAR six
ENCODING 54
SWIDTH 500 0
DWIDTH 10 0
BBX 8 13 1 0
BITMAP
07
18
30
60
60
EE
F7
E7
E7
E7
E7
66
3C
ENDCHAR

STARTCHAR seven
ENCODING 55
SWIDTH 500 0
DWIDTH 10 0
BBX 9 13 1 0
BITMAP
FF80
FF80
8300
8300
0600
0600
0C00
1C00
1800
3800
3000
7000
6000
ENDCHAR

STARTCHAR eight
ENCODING 56
SWIDTH 500 0
DWIDTH 10 0
BBX 8 13 1 0
BITMAP
3C
66
E3
E3
F6
7C
3E
6F
C7
C7
C7
66
3C
ENDCHAR

STARTCHAR nine
ENCODING 57
SWIDTH 500 0
DWIDTH 10 0
BBX 8 13 1 0
BITMAP
3C
66
E7
E7
E7
E7
EF
77
06
06
0C
18
E0
ENDCHAR

STARTCHAR colon
ENCODING 58
SWIDTH 250 0
DWIDTH 5 0
BBX 3 9 1 0
BITMAP
E0
E0
E0
00
00
00
E0
E0
E0
ENDCHAR

STARTCHAR semicolon
ENCODING 59
SWIDTH 250 0
DWIDTH 5 0
BBX 4 12 0 -3
BITMAP
70
70
70
00
00
00
00
30
70
60
40
80
ENDCHAR

STARTCHAR less
ENCODING 60
SWIDTH 606 0
DWIDTH 12 0
BBX 10 11 1 1
BITMAP
0040
01C0
07C0
1E00
7800
E000
7800
1E00
07C0
01C0
0040
ENDCHAR

STARTCHAR equal
ENCODING 61
SWIDTH 606 0
DWIDTH 12 0
BBX 10 5 1 4
BITMAP
FFC0
FFC0
0000
FFC0
FFC0
ENDCHAR

STARTCHAR greater
ENCODING 62
SWIDTH 606 0
DWIDTH 12 0
BBX 10 11 1 1
BITMAP
8000
E000
F800
1E00
0780
01C0
0780
1E00
F800
E000
8000
ENDCHAR

STARTCHAR question
ENCODING 63
SWIDTH 444 0
DWIDTH 8 0
BBX 7 14 1 0
BITMAP
7C
DE
8E
0E
0E
0C
18
30
20
20
00
70
70
70
ENDCHAR

STARTCHAR at
ENCODING 64
SWIDTH 747 0
DWIDTH 14 0
BBX 14 15 0 -2
BITMAP
07C0
1830
2008
4368
46C4
8CC4
8CC4
99C4
9988
9AB4
5CC4
4008
2008
1830
07C0
ENDCHAR

STARTCHAR A
ENCODING 65
SWIDTH 778 0
DWIDTH 15 0
BBX 15 13 0 0
BITMAP
0100
0380
0380
03C0
05C0
04E0
08E0
0860
1FF0
1070
2038
2038
F8FE
ENDCHAR

STARTCHAR B
ENCODING 66
SWIDTH 667 0
DWIDTH 13 0
BBX 11 13 1 0
BITMAP
FFC0
38E0
38E0
38E0
38C0
3F00
38C0
38E0
38E0
38E0
38E0
38C0
FF80
ENDCHAR

STARTCHAR C
ENCODING 67
SWIDTH 722 0
DWIDTH 14 0
BBX 12 13 1 0
BITMAP
0FF0
3830
7010
7010
E000
E000
E000
E000
E000
7000
7000
3810
0FE0
ENDCHAR

STARTCHAR D
ENCODING 68
SWIDTH 833 0
DWIDTH 16 0
BBX 15 13 0 0
BITMAP
FFE0
3838
381C
380C
380E
380E
380E
380E
380C
381C
3818
3830
FFC0
ENDCHAR

STARTCHAR E
ENCODING 69
SWIDTH 611 0
DWIDTH 12 0
BBX 11 13 0 0
BITMAP
FFE0
3820
3820
3800
3880
3880
3F80
3880
3880
3800
3820
3820
FFE0
ENDCHAR

STARTCHAR F
ENCODING 70
SWIDTH 556 0
DWIDTH 11 0
BBX 11 13 0 0
BITMAP
FFE0
3820
3820
3800
3880
3880
3F80
3880
3880
3800
3800
3800
FE00
ENDCHAR

STARTCHAR G
ENCODING 71
SWIDTH 833 0
DWIDTH 16 0
BBX 14 13 1 0
BITMAP
0FF8
3818
7008
7008
E000
E000
E000
E000
E0FC
7038
7038
3830
0FE0
ENDCHAR

STARTCHAR H
ENCODING 72
SWIDTH 833 0
DWIDTH 16 0
BBX 16 13 0 0
BITMAP
FE7F
381C
381C
381C
381C
381C
3FFC
381C
381C
381C
381C
381C
FE7F
ENDCHAR

STARTCHAR I
ENCODING 73
SWIDTH 389 0
DWIDTH 7 0
BBX 7 13 0 0
BITMAP
FE
38
38
38
38
38
38
38
38
38
38
38
FE
ENDCHAR

STARTCHAR J
ENCODING 74
SWIDTH 389 0
DWIDTH 7 0
BBX 7 17 0 -4
BITMAP
FE
38
38
38
38
38
38
38
38
38
38
38
38
30
30
A0
C0
ENDCHAR

STARTCHAR K
ENCODING 75
SWIDTH 778 0
DWIDTH 15 0
BBX 15 13 0 0
BITMAP
FE1C
3830
3820
3840
3880
3B00
3F80
3BC0
39E0
38F0
3878
383C
FE1E
ENDCHAR

STARTCHAR L
ENCODING 76
SWIDTH 611 0
DWIDTH 12 0
BBX 11 13 1 0
BITMAP
FE00
3800
3800
3800
3800
3800
3800
3800
3800
3800
3820
3820
FFE0
ENDCHAR

STARTCHAR M
ENCODING 77
SWIDTH 1000 0
DWIDTH 19 0
BBX 19 13 0 0
BITMAP
F803E0
3C0780
3C0780
2E0B80
2E0B80
271380
271380
23A380
23A380
21C380
21C380
20C380
F88FE0
ENDCHAR

STARTCHAR N
ENCODING 78
SWIDTH 833 0
DWIDTH 16 0
BBX 15 13 1 0
BITMAP
F03E
3808
3C08
3E08
2F08
2708
2388
23C8
21E8
20F8
2078
2038
F818
ENDCHAR

STARTCHAR O
ENCODING 79
SWIDTH 833 0
DWIDTH 16 0
BBX 14 13 1 0
BITMAP
0FC0
3870
7038
7038
E01C
E01C
E01C
E01C
E01C
7038
7038
3870
0FC0
ENDCHAR

STARTCHAR P
ENCODING 80
SWIDTH 611 0
DWIDTH 12 0
BBX 11 13 0 0
BITMAP
FFC0
39E0
38E0
38E0
38E0
38C0
3B80
3800
3800
3800
3800
3800
FE00
ENDCHAR

STARTCHAR Q
ENCODING 81
SWIDTH 833 0
DWIDTH 16 0
BBX 15 16 1 -3
BITMAP
0FC0
3870
7038
7038
E01C
E01C
E01C
E01C
E01C
7038
7038
3870
0FC0
0780
07FE
0C78
ENDCHAR

STARTCHAR R
ENCODING 82
SWIDTH 722 0
DWIDTH 14 0
BBX 14 13 0 0
BITMAP
FFE0
38F0
3870
3870
3870
38E0
3BC0
3B80
39C0
38E0
3870
3878
FE3C
ENDCHAR

STARTCHAR S
ENCODING 83
SWIDTH 611 0
DWIDTH 11 0
BBX 9 13 1 0
BITMAP
3F80
7180
E080
E080
F000
FC00
7F00
1F80
0780
8380
8380
C700
FE00
ENDCHAR

STARTCHAR T
ENCODING 84
SWIDTH 667 0
DWIDTH 13 0
BBX 11 13 1 0
BITMAP
FFE0
8E20
8E20
0E00
0E00
0E00
0E00
0E00
0E00
0E00
0E00
0E00
3F80
ENDCHAR

STARTCHAR U
ENCODING 85
SWIDTH 778 0
DWIDTH 15 0
BBX 15 13 0 0
BITMAP
FE3E
3808
3808
3808
3808
3808
3808
3808
3808
3808
3808
1C10
0FE0
ENDCHAR

STARTCHAR V
ENCODING 86
SWIDTH 778 0
DWIDTH 14 0
BBX 14 13 0 0
BITMAP
FC7C
3810
3810
1C20
1C20
1C20
0E40
0E40
0780
0780
0780
0300
0300
ENDCHAR

STARTCHAR W
ENCODING 87
SWIDTH 1000 0
DWIDTH 19 0
BBX 20 13 0 0
BITMAP
FE31F0
387040
387040
38F880
1CB880
1CB880
1D3900
1D1D00
0E1D00
0E1E00
0E0E00
060C00
060C00
ENDCHAR

STARTCHAR X
ENCODING 88
SWIDTH 667 0
DWIDTH 14 0
BBX 12 13 1 0
BITMAP
3030
F860
3840
1C80
1D00
0F00
0700
0700
0780
09C0
11C0
60E0
C0F0
ENDCHAR

STARTCHAR Y
ENCODING 89
SWIDTH 667 0
DWIDTH 13 0
BBX 12 13 1 0
BITMAP
E030
7060
3840
1C80
0C80
0F00
0700
0700
0700
0700
0700
0700
1FC0
ENDCHAR

STARTCHAR Z
ENCODING 90
SWIDTH 667 0
DWIDTH 13 0
BBX 11 13 1 0
BITMAP
FFE0
81C0
81C0
0380
0700
0700
0E00
1C00
1C00
3800
7020
7020
FFE0
ENDCHAR

STARTCHAR bracketleft
ENCODING 91
SWIDTH 333 0
DWIDTH 6 0
BBX 5 19 1 -5
BITMAP
F8
E0
E0
E0
E0
E0
E0
E0
E0
E0
E0
E0
E0
E0
E0
E0
E0
E0
F8
ENDCHAR

STARTCHAR backslash
ENCODING 92
SWIDTH 606 0
DWIDTH 12 0
BBX 11 19 1 -5
BITMAP
C000
C000
6000
6000
3000
3000
1800
1800
0C00
0C00
0600
0600
0300
0300
0180
0180
00C0
00C0
0060
ENDCHAR

STARTCHAR bracketright
ENCODING 93
SWIDTH 333 0
DWIDTH 6 0
BBX 5 19 1 -5
BITMAP
F8
38
38
38
38
38
38
38
38
38
38
38
38
38
38
38
38
38
F8
ENDCHAR

STARTCHAR asciicircum
ENCODING 94
SWIDTH 606 0
DWIDTH 12 0
BBX 10 8 1 5
BITMAP
0C00
1C00
1E00
3600
3300
6300
6180
C1C0
ENDCHAR

STARTCHAR underscore
ENCODING 95
SWIDTH 500 0
DWIDTH 10 0
BBX 10 2 0 -3
BITMAP
FFC0
FFC0
ENDCHAR

STARTCHAR quoteleft
ENCODING 96
SWIDTH 278 0
DWIDTH 5 0
BBX 4 5 1 9
BITMAP
10
20
60
E0
C0
ENDCHAR

STARTCHAR a
ENCODING 97
SWIDTH 500 0
DWIDTH 10 0
BBX 10 9 1 0
BITMAP
3E00
4700
0700
1F00
6700
E700
E700
EF00
77C0
ENDCHAR

STARTCHAR b
ENCODING 98
SWIDTH 611 0
DWIDTH 12 0
BBX 11 14 0 0
BITMAP
1800
F800
3800
3800
3800
3F80
39C0
38E0
38E0
38E0
38E0
38E0
39C0
3780
ENDCHAR

STARTCHAR c
ENCODING 99
SWIDTH 444 0
DWIDTH 8 0
BBX 7 9 1 0
BITMAP
3E
72
E2
E0
E0
E0
E0
72
3C
ENDCHAR

STARTCHAR d
ENCODING 100
SWIDTH 611 0
DWIDTH 12 0
BBX 11 14 1 0
BITMAP
0180
0F80
0380
0380
0380
1F80
7380
E380
E380
E380
E380
E380
7380
1DE0
ENDCHAR

STARTCHAR e
ENCODING 101
SWIDTH 500 0
DWIDTH 10 0
BBX 8 9 1 0
BITMAP
3C
66
E7
E7
FF
E0
E0
71
3E
ENDCHAR

STARTCHAR f
ENCODING 102
SWIDTH 389 0
DWIDTH 7 0
BBX 8 14 0 0
BITMAP
07
0D
19
18
38
FE
38
38
38
38
38
38
38
FE
ENDCHAR

STARTCHAR g
ENCODING 103
SWIDTH 556 0
DWIDTH 11 0
BBX 10 14 1 -5
BITMAP
1E00
37C0
7300
7300
7600
3C00
6000
7E00
3F80
63C0
C1C0
C1C0
E380
7F00
ENDCHAR

STARTCHAR h
ENCODING 104
SWIDTH 611 0
DWIDTH 12 0
BBX 13 14 0 0
BITMAP
1800
F800
3800
3800
3800
3BC0
3CE0
38E0
38E0
38E0
38E0
38E0
38E0
FEF8
ENDCHAR

STARTCHAR i
ENCODING 105
SWIDTH 333 0
DWIDTH 6 0
BBX 7 13 0 0
BITMAP
38
38
38
00
18
F8
38
38
38
38
38
38
FE
ENDCHAR

STARTCHAR j
ENCODING 106
SWIDTH 333 0
DWIDTH 6 0
BBX 5 18 0 -5
BITMAP
38
38
38
00
18
F8
38
38
38
38
38
38
38
38
38
38
30
E0
ENDCHAR

STARTCHAR k
ENCODING 107
SWIDTH 611 0
DWIDTH 12 0
BBX 11 14 1 0
BITMAP
1800
F800
3800
3800
3800
38E0
3980
3A00
3E00
3E00
3F00
3B80
39C0
FCE0
ENDCHAR

STARTCHAR l
ENCODING 108
SWIDTH 333 0
DWIDTH 6 0
BBX 7 14 0 0
BITMAP
18
F8
38
38
38
38
38
38
38
38
38
38
38
FE
ENDCHAR

STARTCHAR m
ENCODING 109
SWIDTH 889 0
DWIDTH 17 0
BBX 17 9 0 0
BITMAP
1BDC00
FDEE00
39CE00
39CE00
39CE00
39CE00
39CE00
39CE00
FBEF80
ENDCHAR

STARTCHAR n
ENCODING 110
SWIDTH 611 0
DWIDTH 12 0
BBX 13 9 0 0
BITMAP
1BC0
FCE0
38E0
38E0
38E0
38E0
38E0
38E0
FCF8
ENDCHAR

STARTCHAR o
ENCODING 111
SWIDTH 556 0
DWIDTH 11 0
BBX 9 9 1 0
BITMAP
3E00
6300
E380
E380
E380
E380
E380
6300
3E00
ENDCHAR

STARTCHAR p
ENCODING 112
SWIDTH 611 0
DWIDTH 12 0
BBX 11 14 0 -5
BITMAP
1BC0
FCE0
38E0
38E0
38E0
38E0
38E0
38C0
3F80
3800
3800
3800
3800
FE00
ENDCHAR

STARTCHAR q
ENCODING 113
SWIDTH 611 0
DWIDTH 12 0
BBX 11 14 1 -5
BITMAP
3D80
6380
E380
E380
E380
E380
E380
6380
3F80
0380
0380
0380
0380
0FE0
ENDCHAR

STARTCHAR r
ENCODING 114
SWIDTH 389 0
DWIDTH 7 0
BBX 7 9 0 0
BITMAP
1A
FE
3A
38
38
38
38
38
FE
ENDCHAR

STARTCHAR s
ENCODING 115
SWIDTH 444 0
DWIDTH 9 0
BBX 7 9 1 0
BITMAP
7E
E2
E2
F0
7C
1E
8E
8E
FC
ENDCHAR

STARTCHAR t
ENCODING 116
SWIDTH 333 0
DWIDTH 6 0
BBX 7 13 -1 0
BITMAP
08
18
38
38
FE
38
38
38
38
38
38
3A
1C
ENDCHAR

STARTCHAR u
ENCODING 117
SWIDTH 611 0
DWIDTH 12 0
BBX 12 9 0 0
BITMAP
18C0
FBC0
39C0
39C0
39C0
39C0
39C0
3BC0
1DF0
ENDCHAR

STARTCHAR v
ENCODING 118
SWIDTH 556 0
DWIDTH 11 0
BBX 11 9 0 0
BITMAP
FDE0
3880
3880
1D00
1D00
1D00
0E00
0E00
0E00
ENDCHAR

STARTCHAR w
ENCODING 119
SWIDTH 833 0
DWIDTH 16 0
BBX 16 9 0 0
BITMAP
F99F
7184
71C4
3AC8
3AE8
3A68
1C70
1C30
1C30
ENDCHAR

STARTCHAR x
ENCODING 120
SWIDTH 500 0
DWIDTH 10 0
BBX 10 9 0 0
BITMAP
E180
7100
3A00
1C00
0C00
1E00
2700
4380
C1C0
ENDCHAR

STARTCHAR y
ENCODING 121
SWIDTH 556 0
DWIDTH 11 0
BBX 11 14 0 -5
BITMAP
FDE0
38C0
3880
1C80
1D00
1D00
0E00
0E00
0600
0400
0400
0800
6800
3000
ENDCHAR

STARTCHAR z
ENCODING 122
SWIDTH 500 0
DWIDTH 10 0
BBX 8 9 1 0
BITMAP
FF
87
8E
1C
38
38
71
E1
FF
ENDCHAR

STARTCHAR braceleft
ENCODING 123
SWIDTH 310 0
DWIDTH 6 0
BBX 5 19 1 -5
BITMAP
18
20
60
70
70
70
30
30
60
C0
60
30
30
70
70
70
60
20
18
ENDCHAR

STARTCHAR bar
ENCODING 124
SWIDTH 606 0
DWIDTH 12 0
BBX 3 19 5 -5
BITMAP
E0
E0
E0
E0
E0
E0
E0
E0
E0
E0
E0
E0
E0
E0
E0
E0
E0
E0
E0
ENDCHAR

STARTCHAR braceright
ENCODING 125
SWIDTH 310 0
DWIDTH 6 0
BBX 5 19 1 -5
BITMAP
C0
20
30
70
70
70
60
60
30
18
30
60
60
70
70
70
30
20
C0
ENDCHAR

STARTCHAR asciitilde
ENCODING 126
SWIDTH 606 0
DWIDTH 12 0
BBX 10 4 1 3
BITMAP
7040
FC40
9FC0
8780
ENDCHAR

STARTCHAR space
ENCODING 160
SWIDTH 250 0
DWIDTH 6 0
BBX 0 0 0 0
BITMAP
ENDCHAR

STARTCHAR Aogonek
ENCODING 161
SWIDTH 778 0
DWIDTH 15 0
BBX 15 15 0 -2
BITMAP
0100
0380
0380
03C0
05C0
04E0
08E0
0860
1FF0
1070
2038
2038
F8FE
0030
001E
ENDCHAR

STARTCHAR breve
ENCODING 162
SWIDTH 333 0
DWIDTH 6 0
BBX 7 2 0 10
BITMAP
C6
7C
ENDCHAR

STARTCHAR Lslash
ENCODING 163
SWIDTH 611 0
DWIDTH 12 0
BBX 11 13 1 0
BITMAP
FE00
3800
3800
3900
3A00
3C00
3800
3800
7800
B800
3820
3820
FFE0
ENDCHAR

STARTCHAR currency
ENCODING 164
SWIDTH 606 0
DWIDTH 12 0
BBX 9 9 2 2
BITMAP
5D00
FF80
6300
C180
C180
C180
6300
FF80
5D00
ENDCHAR

STARTCHAR Lcaron
ENCODING 165
SWIDTH 611 0
DWIDTH 12 0
BBX 11 13 1 0
BITMAP
FEC0
38C0
3880
3900
3800
3800
3800
3800
3800
3800
3820
3820
FFE0
ENDCHAR

STARTCHAR Sacute
ENCODING 166
SWIDTH 611 0
DWIDTH 11 0
BBX 9 16 1 0
BITMAP
0700
0C00
0000
3F80
7180
E080
E080
F000
FC00
7F00
1F80
0780
8380
8380
C700
FE00
ENDCHAR

STARTCHAR section
ENCODING 167
SWIDTH 500 0
DWIDTH 10 0
BBX 8 19 1 -5
BITMAP
3C
76
E2
E2
F0
78
FC
DE
CF
C7
E3
F3
7B
3E
1F
4F
47
6E
3C
ENDCHAR

STARTCHAR dieresis
ENCODING 168
SWIDTH 333 0
DWIDTH 6 0
BBX 6 2 0 10
BITMAP
CC
CC
ENDCHAR

STARTCHAR Scaron
ENCODING 169
SWIDTH 611 0
DWIDTH 11 0
BBX 9 16 1 0
BITMAP
1980
0F00
0000
3F80
7180
E080
E080
F000
FC00
7F00
1F80
0780
8380
8380
C700
FE00
ENDCHAR

STARTCHAR Scommaaccent
ENCODING 170
SWIDTH 611 0
DWIDTH 11 0
BBX 9 18 1 -5
BITMAP
3F80
7180
E080
E080
F000
FC00
7F00
1F80
0780
8380
8380
C700
FE00
0000
3000
3000
2000
4000
ENDCHAR

STARTCHAR Tcaron
ENCODING 171
SWIDTH 667 0
DWIDTH 13 0
BBX 11 16 1 0
BITMAP
1980
0F00
0000
FFE0
8E20
8E20
0E00
0E00
0E00
0E00
0E00
0E00
0E00
0E00
0E00
3F80
ENDCHAR

STARTCHAR Zacute
ENCODING 172
SWIDTH 667 0
DWIDTH 13 0
BBX 11 16 1 0
BITMAP
0700
0C00
0000
FFE0
81C0
81C0
0380
0700
0700
0E00
1C00
1C00
3800
7020
7020
FFE0
ENDCHAR

STARTCHAR hyphen
ENCODING 173
SWIDTH 333 0
DWIDTH 6 0
BBX 6 2 0 4
BITMAP
FC
FC
ENDCHAR

STARTCHAR Zcaron
ENCODING 174
SWIDTH 667 0
DWIDTH 13 0
BBX 11 16 1 0
BITMAP
1980
0F00
0000
FFE0
81C0
81C0
0380
0700
0700
0E00
1C00
1C00
3800
7020
7020
FFE0
ENDCHAR

STARTCHAR Zdotaccent
ENCODING 175
SWIDTH 667 0
DWIDTH 13 0
BBX 11 16 1 0
BITMAP
0600
0600
0000
FFE0
81C0
81C0
0380
0700
0700
0E00
1C00
1C00
3800
7020
7020
FFE0
ENDCHAR

STARTCHAR degree
ENCODING 176
SWIDTH 396 0
DWIDTH 8 0
BBX 6 6 1 7
BITMAP
78
CC
CC
CC
CC
78
ENDCHAR

STARTCHAR aogonek
ENCODING 177
SWIDTH 500 0
DWIDTH 10 0
BBX 10 11 1 -2
BITMAP
3E00
4700
0700
1F00
6700
E700
E700
EF00
77C0
0600
03C0
ENDCHAR

STARTCHAR ogonek
ENCODING 178
SWIDTH 333 0
DWIDTH 6 0
BBX 5 2 1 -2
BITMAP
C0
78
ENDCHAR

STARTCHAR lslash
ENCODING 179
SWIDTH 333 0
DWIDTH 6 0
BBX 7 14 0 0
BITMAP
18
F8
38
38
3A
3C
38
78
B8
38
38
38
38
FE
ENDCHAR

STARTCHAR acute
ENCODING 180
SWIDTH 333 0
DWIDTH 6 0
BBX 4 2 1 10
BITMAP
70
C0
ENDCHAR

STARTCHAR lcaron
ENCODING 181
SWIDTH 449 0
DWIDTH 7 0
BBX 8 14 0 0
BITMAP
1B
FB
3A
3C
38
38
38
38
38
38
38
38
38
FE
ENDCHAR

STARTCHAR sacute
ENCODING 182
SWIDTH 444 0
DWIDTH 9 0
BBX 7 12 1 0
BITMAP
0E
18
00
7E
E2
E2
F0
7C
1E
8E
8E
FC
ENDCHAR

STARTCHAR caron
ENCODING 183
SWIDTH 333 0
DWIDTH 6 0
BBX 6 2 0 10
BITMAP
CC
78
ENDCHAR

STARTCHAR commaaccent
ENCODING 184
SWIDTH 333 0
DWIDTH 6 0
BBX 3 4 1 -5
BITMAP
60
60
40
80
ENDCHAR

STARTCHAR scaron
ENCODING 185
SWIDTH 444 0
DWIDTH 9 0
BBX 7 12 1 0
BITMAP
66
3C
00
7E
E2
E2
F0
7C
1E
8E
8E
FC
ENDCHAR

STARTCHAR scommaaccent
ENCODING 186
SWIDTH 444 0
DWIDTH 9 0
BBX 7 14 1 -5
BITMAP
7E
E2
E2
F0
7C
1E
8E
8E
FC
00
30
30
20
40
ENDCHAR

STARTCHAR tcaron
ENCODING 187
SWIDTH 420 0
DWIDTH 6 0
BBX 8 14 -1 0
BITMAP
03
0B
1A
3C
38
FE
38
38
38
38
38
38
3A
1C
ENDCHAR

STARTCHAR zacute
ENCODING 188
SWIDTH 500 0
DWIDTH 10 0
BBX 8 12 1 0
BITMAP
0E
18
00
FF
87
8E
1C
38
38
71
E1
FF
ENDCHAR

STARTCHAR hungarumlaut
ENCODING 189
SWIDTH 333 0
DWIDTH 6 0
BBX 9 2 -1 10
BITMAP
7380
C600
ENDCHAR

STARTCHAR zcaron
ENCODING 190
SWIDTH 500 0
DWIDTH 10 0
BBX 8 12 1 0
BITMAP
33
1E
00
FF
87
8E
1C
38
38
71
E1
FF
ENDCHAR

STARTCHAR zdotaccent
ENCODING 191
SWIDTH 500 0
DWIDTH 10 0
BBX 8 12 1 0
BITMAP
18
18
00
FF
87
8E
1C
38
38
71
E1
FF
ENDCHAR

STARTCHAR Racute
ENCODING 192
SWIDTH 722 0
DWIDTH 14 0
BBX 14 16 0 0
BITMAP
0380
0600
0000
FFE0
38F0
3870
3870
3870
38E0
3BC0
3B80
39C0
38E0
3870
3878
FE3C
ENDCHAR

STARTCHAR Aacute
ENCODING 193
SWIDTH 778 0
DWIDTH 15 0
BBX 15 16 0 0
BITMAP
00E0
0180
0000
0100
0380
0380
03C0
05C0
04E0
08E0
0860
1FF0
1070
2038
2038
F8FE
ENDCHAR

STARTCHAR Acircumflex
ENCODING 194
SWIDTH 778 0
DWIDTH 15 0
BBX 15 16 0 0
BITMAP
03C0
0660
0000
0100
0380
0380
03C0
05C0
04E0
08E0
0860
1FF0
1070
2038
2038
F8FE
ENDCHAR

STARTCHAR Abreve
ENCODING 195
SWIDTH 778 0
DWIDTH 15 0
BBX 15 16 0 0
BITMAP
0C60
07C0
0000
0100
0380
0380
03C0
05C0
04E0
08E0
0860
1FF0
1070
2038
2038
F8FE
ENDCHAR

STARTCHAR Adieresis
ENCODING 196
SWIDTH 778 0
DWIDTH 15 0
BBX 15 16 0 0
BITMAP
0660
0660
0000
0100
0380
0380
03C0
05C0
04E0
08E0
0860
1FF0
1070
2038
2038
F8FE
ENDCHAR

STARTCHAR Lacute
ENCODING 197
SWIDTH 611 0
DWIDTH 12 0
BBX 11 16 1 0
BITMAP
0700
0C00
0000
FE00
3800
3800
3800
3800
3800
3800
3800
3800
3800
3820
3820
FFE0
ENDCHAR

STARTCHAR Cacute
ENCODING 198
SWIDTH 722 0
DWIDTH 14 0
BBX 12 16 1 0
BITMAP
01C0
0300
0000
0FF0
3830
7010
7010
E000
E000
E000
E000
E000
7000
7000
3810
0FE0
ENDCHAR

STARTCHAR Ccedilla
ENCODING 199
SWIDTH 722 0
DWIDTH 14 0
BBX 12 16 1 -3
BITMAP
0FF0
3830
7010
7010
E000
E000
E000
E000
E000
7000
7000
3810
0FE0
0300
0180
0700
ENDCHAR

STARTCHAR Ccaron
ENCODING 200
SWIDTH 722 0
DWIDTH 14 0
BBX 12 16 1 0
BITMAP
0660
03C0
0000
0FF0
3830
7010
7010
E000
E000
E000
E000
E000
7000
7000
3810
0FE0
ENDCHAR

STARTCHAR Eacute
ENCODING 201
SWIDTH 611 0
DWIDTH 12 0
BBX 11 16 0 0
BITMAP
0380
0600
0000
FFE0
3820
3820
3800
3880
3880
3F80
3880
3880
3800
3820
3820
FFE0
ENDCHAR

STARTCHAR Eogonek
ENCODING 202
SWIDTH 611 0
DWIDTH 12 0
BBX 11 15 0 -2
BITMAP
FFE0
3820
3820
3800
3880
3880
3F80
3880
3880
3800
3820
3820
FFE0
0300
01E0
ENDCHAR

STARTCHAR Edieresis
ENCODING 203
SWIDTH 611 0
DWIDTH 12 0
BBX 11 16 0 0
BITMAP
1980
1980
0000
FFE0
3820
3820
3800
3880
3880
3F80
3880
3880
3800
3820
3820
FFE0
ENDCHAR

STARTCHAR Ecaron
ENCODING 204
SWIDTH 611 0
DWIDTH 12 0
BBX 11 16 0 0
BITMAP
1980
0F00
0000
FFE0
3820
3820
3800
3880
3880
3F80
3880
3880
3800
3820
3820
FFE0
ENDCHAR

STARTCHAR Iacute
ENCODING 205
SWIDTH 389 0
DWIDTH 7 0
BBX 7 16 0 0
BITMAP
1C
30
00
FE
38
38
38
38
38
38
38
38
38
38
38
FE
ENDCHAR

STARTCHAR Icircumflex
ENCODING 206
SWIDTH 389 0
DWIDTH 7 0
BBX 7 16 0 0
BITMAP
3C
66
00
FE
38
38
38
38
38
38
38
38
38
38
38
FE
ENDCHAR

STARTCHAR Dcaron
ENCODING 207
SWIDTH 833 0
DWIDTH 16 0
BBX 15 16 0 0
BITMAP
0CC0
0780
0000
FFE0
3838
381C
380C
380E
380E
380E
380E
380C
381C
3818
3830
FFC0
ENDCHAR

STARTCHAR Dcroat
ENCODING 208
SWIDTH 833 0
DWIDTH 16 0
BBX 15 13 0 0
BITMAP
FFE0
3838
381C
380C
380E
380E
FF0E
380E
380C
381C
3818
3830
FFC0
ENDCHAR

STARTCHAR Nacute
ENCODING 209
SWIDTH 833 0
DWIDTH 16 0
BBX 15 16 1 0
BITMAP
01C0
0300
0000
F03E
3808
3C08
3E08
2F08
2708
2388
23C8
21E8
20F8
2078
2038
F818
ENDCHAR

STARTCHAR Ncaron
ENCODING 210
SWIDTH 833 0
DWIDTH 16 0
BBX 15 16 1 0
BITMAP
0660
03C0
0000
F03E
3808
3C08
3E08
2F08
2708
2388
23C8
21E8
20F8
2078
2038
F818
ENDCHAR

STARTCHAR Oacute
ENCODING 211
SWIDTH 833 0
DWIDTH 16 0
BBX 14 16 1 0
BITMAP
0380
0600
0000
0FC0
3870
7038
7038
E01C
E01C
E01C
E01C
E01C
7038
7038
3870
0FC0
ENDCHAR

STARTCHAR Ocircumflex
ENCODING 212
SWIDTH 833 0
DWIDTH 16 0
BBX 14 16 1 0
BITMAP
0780
0CC0
0000
0FC0
3870
7038
7038
E01C
E01C
E01C
E01C
E01C
7038
7038
3870
0FC0
ENDCHAR

STARTCHAR Ohungarumlaut
ENCODING 213
SWIDTH 833 0
DWIDTH 16 0
BBX 14 16 1 0
BITMAP
0E70
18C0
0000
0FC0
3870
7038
7038
E01C
E01C
E01C
E01C
E01C
7038
7038
3870
0FC0
ENDCHAR

STARTCHAR Odieresis
ENCODING 214
SWIDTH 833 0
DWIDTH 16 0
BBX 14 16 1 0
BITMAP
0CC0
0CC0
0000
0FC0
3870
7038
7038
E01C
E01C
E01C
E01C
E01C
7038
7038
3870
0FC0
ENDCHAR

STARTCHAR multiply
ENCODING 215
SWIDTH 606 0
DWIDTH 12 0
BBX 8 7 2 3
BITMAP
C3
66
3C
18
3C
66
C3
ENDCHAR

STARTCHAR Rcaron
ENCODING 216
SWIDTH 722 0
DWIDTH 14 0
BBX 14 16 0 0
BITMAP
0CC0
0780
0000
FFE0
38F0
3870
3870
3870
38E0
3BC0
3B80
39C0
38E0
3870
3878
FE3C
ENDCHAR

STARTCHAR Uring
ENCODING 217
SWIDTH 778 0
DWIDTH 15 0
BBX 15 17 0 0
BITMAP
01C0
0220
01C0
0000
FE3E
3808
3808
3808
3808
3808
3808
3808
3808
3808
3808
1C10
0FE0
ENDCHAR

STARTCHAR Uacute
ENCODING 218
SWIDTH 778 0
DWIDTH 15 0
BBX 15 16 0 0
BITMAP
00E0
0180
0000
FE3E
3808
3808
3808
3808
3808
3808
3808
3808
3808
3808
1C10
0FE0
ENDCHAR

STARTCHAR Uhungarumlaut
ENCODING 219
SWIDTH 778 0
DWIDTH 15 0
BBX 15 16 0 0
BITMAP
0738
0C60
0000
FE3E
3808
3808
3808
3808
3808
3808
3808
3808
3808
3808
1C10
0FE0
ENDCHAR

STARTCHAR Udieresis
ENCODING 220
SWIDTH 778 0
DWIDTH 15 0
BBX 15 16 0 0
BITMAP
0660
0660
0000
FE3E
3808
3808
3808
3808
3808
3808
3808
3808
3808
3808
1C10
0FE0
ENDCHAR

STARTCHAR Yacute
ENCODING 221
SWIDTH 667 0
DWIDTH 13 0
BBX 12 16 1 0
BITMAP
0380
0600
0000
E030
7060
3840
1C80
0C80
0F00
0700
0700
0700
0700
0700
0700
1FC0
ENDCHAR

STARTCHAR Tcommaaccent
ENCODING 222
SWIDTH 667 0
DWIDTH 13 0
BBX 11 18 1 -5
BITMAP
FFE0
8E20
8E20
0E00
0E00
0E00
0E00
0E00
0E00
0E00
0E00
0E00
3F80
0000
0C00
0C00
0800
1000
ENDCHAR

STARTCHAR germandbls
ENCODING 223
SWIDTH 611 0
DWIDTH 12 0
BBX 10 14 0 0
BITMAP
0F00
1980
3180
3180
3180
3300
F600
3600
3380
31C0
30C0
34C0
3480
F300
ENDCHAR

STARTCHAR racute
ENCODING 224
SWIDTH 389 0
DWIDTH 7 0
BBX 7 12 0 0
BITMAP
1C
30
00
1A
FE
3A
38
38
38
38
38
FE
ENDCHAR

STARTCHAR aacute
ENCODING 225
SWIDTH 500 0
DWIDTH 10 0
BBX 10 12 1 0
BITMAP
0E00
1800
0000
3E00
4700
0700
1F00
6700
E700
E700
EF00
77C0
ENDCHAR

STARTCHAR acircumflex
ENCODING 226
SWIDTH 500 0
DWIDTH 10 0
BBX 10 12 1 0
BITMAP
1E00
3300
0000
3E00
4700
0700
1F00
6700
E700
E700
EF00
77C0
ENDCHAR

STARTCHAR abreve
ENCODING 227
SWIDTH 500 0
DWIDTH 10 0
BBX 10 12 1 0
BITMAP
6300
3E00
0000
3E00
4700
0700
1F00
6700
E700
E700
EF00
77C0
ENDCHAR

STARTCHAR adieresis
ENCODING 228
SWIDTH 500 0
DWIDTH 10 0
BBX 10 12 1 0
BITMAP
3300
3300
0000
3E00
4700
0700
1F00
6700
E700
E700
EF00
77C0
ENDCHAR

STARTCHAR lacute
ENCODING 229
SWIDTH 333 0
DWIDTH 6 0
BBX 7 17 0 0
BITMAP
0E
18
00
18
F8
38
38
38
38
38
38
38
38
38
38
38
FE
ENDCHAR

STARTCHAR cacute
ENCODING 230
SWIDTH 444 0
DWIDTH 8 0
BBX 7 12 1 0
BITMAP
0E
18
00
3E
72
E2
E0
E0
E0
E0
72
3C
ENDCHAR

STARTCHAR ccedilla
ENCODING 231
SWIDTH 444 0
DWIDTH 8 0
BBX 7 12 1 -3
BITMAP
3E
72
E2
E0
E0
E0
E0
72
3C
18
0C
38
ENDCHAR

STARTCHAR ccaron
ENCODING 232
SWIDTH 444 0
DWIDTH 8 0
BBX 7 12 1 0
BITMAP
66
3C
00
3E
72
E2
E0
E0
E0
E0
72
3C
ENDCHAR

STARTCHAR eacute
ENCODING 233
SWIDTH 500 0
DWIDTH 10 0
BBX 8 12 1 0
BITMAP
0E
18
00
3C
66
E7
E7
FF
E0
E0
71
3E
ENDCHAR

STARTCHAR eogonek
ENCODING 234
SWIDTH 500 0
DWIDTH 10 0
BBX 8 11 1 -2
BITMAP
3C
66
E7
E7
FF
E0
E0
71
3E
18
0F
ENDCHAR

STARTCHAR edieresis
ENCODING 235
SWIDTH 500 0
DWIDTH 10 0
BBX 8 12 1 0
BITMAP
66
66
00
3C
66
E7
E7
FF
E0
E0
71
3E
ENDCHAR

STARTCHAR ecaron
ENCODING 236
SWIDTH 500 0
DWIDTH 10 0
BBX 8 12 1 0
BITMAP
66
3C
00
3C
66
E7
E7
FF
E0
E0
71
3E
ENDCHAR

STARTCHAR iacute
ENCODING 237
SWIDTH 333 0
DWIDTH 6 0
BBX 7 12 0 0
BITMAP
1C
30
00
18
F8
38
38
38
38
38
38
FE
ENDCHAR

STARTCHAR icircumflex
ENCODING 238
SWIDTH 333 0
DWIDTH 6 0
BBX 7 12 0 0
BITMAP
3C
66
00
18
F8
38
38
38
38
38
38
FE
ENDCHAR

STARTCHAR dcaron
ENCODING 239
SWIDTH 738 0
DWIDTH 12 0
BBX 12 14 1 0
BITMAP
01B0
0FB0
03A0
03C0
0380
1F80
7380
E380
E380
E380
E380
E380
7380
1DE0
ENDCHAR

STARTCHAR dcroat
ENCODING 240
SWIDTH 611 0
DWIDTH 12 0
BBX 11 14 1 0
BITMAP
0180
0F80
0380
1FE0
0380
1F80
7380
E380
E380
E380
E380
E380
7380
1DE0
ENDCHAR

STARTCHAR nacute
ENCODING 241
SWIDTH 611 0
DWIDTH 12 0
BBX 13 12 0 0
BITMAP
0380
0600
0000
1BC0
FCE0
38E0
38E0
38E0
38E0
38E0
38E0
FCF8
ENDCHAR

STARTCHAR ncaron
ENCODING 242
SWIDTH 611 0
DWIDTH 12 0
BBX 13 12 0 0
BITMAP
0CC0
0780
0000
1BC0
FCE0
38E0
38E0
38E0
38E0
38E0
38E0
FCF8
ENDCHAR

STARTCHAR oacute
ENCODING 243
SWIDTH 556 0
DWIDTH 11 0
BBX 9 12 1 0
BITMAP
0700
0C00
0000
3E00
6300
E380
E380
E380
E380
E380
6300
3E00
ENDCHAR

STARTCHAR ocircumflex
ENCODING 244
SWIDTH 556 0
DWIDTH 11 0
BBX 9 12 1 0
BITMAP
1E00
3300
0000
3E00
6300
E380
E380
E380
E380
E380
6300
3E00
ENDCHAR

STARTCHAR ohungarumlaut
ENCODING 245
SWIDTH 556 0
DWIDTH 11 0
BBX 10 12 1 0
BITMAP
39C0
6300
0000
3E00
6300
E380
E380
E380
E380
E380
6300
3E00
ENDCHAR

STARTCHAR odieresis
ENCODING 246
SWIDTH 556 0
DWIDTH 11 0
BBX 9 12 1 0
BITMAP
3300
3300
0000
3E00
6300
E380
E380
E380
E380
E380
6300
3E00
ENDCHAR

STARTCHAR divide
ENCODING 247
SWIDTH 606 0
DWIDTH 12 0
BBX 10 8 1 2
BITMAP
0C00
0C00
0000
FFC0
FFC0
0000
0C00
0C00
ENDCHAR

STARTCHAR rcaron
ENCODING 248
SWIDTH 389 0
DWIDTH 7 0
BBX 7 12 0 0
BITMAP
66
3C
00
1A
FE
3A
38
38
38
38
38
FE
ENDCHAR

STARTCHAR uring
ENCODING 249
SWIDTH 611 0
DWIDTH 12 0
BBX 12 13 0 0
BITMAP
0700
0880
0700
0000
18C0
FBC0
39C0
39C0
39C0
39C0
39C0
3BC0
1DF0
ENDCHAR

STARTCHAR uacute
ENCODING 250
SWIDTH 611 0
DWIDTH 12 0
BBX 12 12 0 0
BITMAP
0380
0600
0000
18C0
FBC0
39C0
39C0
39C0
39C0
39C0
3BC0
1DF0
ENDCHAR

STARTCHAR uhungarumlaut
ENCODING 251
SWIDTH 611 0
DWIDTH 12 0
BBX 12 12 0 0
BITMAP
1CE0
3180
0000
18C0
FBC0
39C0
39C0
39C0
39C0
39C0
3BC0
1DF0
ENDCHAR

STARTCHAR udieresis
ENCODING 252
SWIDTH 611 0
DWIDTH 12 0
BBX 12 12 0 0
BITMAP
1980
1980
0000
18C0
FBC0
39C0
39C0
39C0
39C0
39C0
3BC0
1DF0
ENDCHAR

STARTCHAR yacute
ENCODING 253
SWIDTH 556 0
DWIDTH 11 0
BBX 11 17 0 -5
BITMAP
0380
0600
0000
FDE0
38C0
3880
1C80
1D00
1D00
0E00
0E00
0600
0400
0400
0800
6800
3000
ENDCHAR

STARTCHAR tcommaaccent
ENCODING 254
SWIDTH 333 0
DWIDTH 6 0
BBX 7 18 -1 -5
BITMAP
08
18
38
38
FE
38
38
38
38
38
38
3A
1C
00
18
18
10
20
ENDCHAR

STARTCHAR dotaccent
ENCODING 255
SWIDTH 333 0
DWIDTH 6 0
BBX 2 2 2 10
BITMAP
C0
C0
ENDCHAR
ENDFONT
